<svg xmlns="http://www.w3.org/2000/svg" width="420" height="268" viewBox="0 0 420 268" fill="none" role="img" aria-labelledby="title desc">
<title id="title">Current focus</title>
<desc id="desc">Investigating the cost of general programmability: how much execution overhead can I remove without hard-coding the computation?</desc>
<defs><pattern id="dots" width="18" height="18" patternUnits="userSpaceOnUse"><circle cx="1" cy="1" r=".8" fill="#334250" opacity=".48"/></pattern><linearGradient id="fade"><stop stop-color="white" stop-opacity="0"/><stop offset="1" stop-color="white"/></linearGradient><mask id="fade-mask"><rect width="420" height="268" fill="url(#fade)"/></mask></defs>
<rect x="1" y="1" width="418" height="266" rx="15" fill="#0d1117" stroke="#293340" stroke-width="1.5"/>
<rect x="220" y="2" width="198" height="264" rx="14" fill="url(#dots)" mask="url(#fade-mask)"/>
<path d="M1 33v202" stroke="#a7f36b" stroke-width="2" opacity=".9"/>
<rect x="25" y="25" width="40" height="40" rx="10" fill="#1b2a1e"/><g transform="translate(33 33)"><g stroke="#a7f36b" stroke-width="1.7" stroke-linecap="round" stroke-linejoin="round"><path d="M8 3H4a1 1 0 0 0-1 1v4m13-5h4a1 1 0 0 1 1 1v4M3 16v4a1 1 0 0 0 1 1h4m8 0h4a1 1 0 0 0 1-1v-4"/><circle cx="12" cy="12" r="5"/><circle cx="12" cy="12" r="1.3"/></g></g>
<text x="80" y="42" font-family="Arial, Helvetica, sans-serif" font-size="17" fill="#97a6b6"><tspan x="80">Investigating the cost of</tspan><tspan x="80" dy="23">general programmability:</tspan></text>
<text x="26" y="119" font-family="Arial, Helvetica, sans-serif" font-size="25" font-weight="600" letter-spacing="-.45" fill="#f0f6fc"><tspan x="26">how much execution overhead</tspan><tspan x="26" dy="34">can I remove without</tspan><tspan x="26" dy="34">hard-coding the computation?</tspan></text>
<g stroke="#334250" stroke-width="1.25" stroke-linecap="round" stroke-linejoin="round"><path d="M26 230h54l10-10h32m-32 10h33l9 9h75m-65-19h24l10 10h45"/></g><circle cx="26" cy="230" r="2.5" fill="#a7f36b"/><circle cx="221" cy="230" r="2.5" fill="#a7f36b"/><g stroke="#334250" stroke-width="1.1" stroke-linecap="round" stroke-linejoin="round"><path d="M347 239h40v-38"/></g>
</svg>
